<?xml version="1.0" encoding="UTF-8"?><svg id="Layer_1" xmlns="http://www.w3.org/2000/svg" viewBox="0 0 1024 1024"><path d="M748.11,303.36c-7.66-5.4-16.59-8.14-26.52-8.14h-288.01c-14.71,0-22.73,9.93-25.33,19.22-2.6,9.29-.88,21.94,11.7,29.56l85.04,51.53c14.25,8.64,24.48,22.26,28.79,38.35l22.14,82.65c3.61,13.48,15.45,19.52,25.58,19.52,4.87,0,12.02-1.34,18.41-7.73l154.31-154.31c7.02-7.02,11.4-15.27,13-24.51,1.48-8.57.45-17.49-2.99-25.8s-9.02-15.35-16.13-20.36Z"/><path d="M605.49,680.05l-85.72-52.45c-14.77-9.04-25.41-23.91-29.19-40.81l-18.38-82.15c-3.17-14.15-15.63-20.59-25.86-20.59-4.86,0-12,1.34-18.39,7.74l-158.18,158.18c-7.02,7.02-11.4,15.27-13,24.51-1.48,8.57-.45,17.49,2.99,25.8,3.44,8.31,9.02,15.34,16.13,20.36,7.66,5.4,16.59,8.14,26.52,8.14h289.36c14.68,0,22.7-9.9,25.31-19.17,2.61-9.27.94-21.9-11.59-29.56Z"/><path d="M0,0V1024h1024V0H0ZM591.77,747.78h-289.36c-58.05,0-87.12-70.19-46.08-111.24l158.18-158.18c9.11-9.11,20.55-13.3,31.83-13.3,19.98,0,39.42,13.16,44.41,35.44l18.38,82.15c2.68,11.97,10.1,22.35,20.56,28.75l85.72,52.45c39.01,23.87,22.09,83.93-23.64,83.93ZM767.66,387.46l-154.31,154.31c-9.09,9.09-20.55,13.29-31.85,13.29-19.35,0-38.24-12.34-43.93-33.6l-22.14-82.65c-3.02-11.28-10.29-20.97-20.28-27.02l-85.04-51.53c-39.2-23.75-22.37-84.04,23.47-84.04h288.01c58.05,0,87.12,70.19,46.08,111.24Z"/></svg>