<svg width="1080" height="1080" viewBox="0 0 1080 1080" fill="none" xmlns="http://www.w3.org/2000/svg">
<path d="M761.052 311.365C771.525 311.365 780.933 314.255 789.022 319.95C796.521 325.234 802.406 332.659 806.034 341.423C809.662 350.188 810.749 359.596 809.188 368.634C807.5 378.38 802.891 387.07 795.477 394.485L632.728 557.234C625.989 563.973 618.448 565.386 613.311 565.386C602.627 565.386 590.14 559.016 586.332 544.799L562.982 457.629C558.436 440.648 547.646 426.284 532.617 417.182L442.927 362.834C429.659 354.786 427.845 341.455 430.587 331.657C433.329 321.859 441.777 311.386 457.302 311.386H761.062M761.052 291.326H457.291C408.945 291.326 391.184 354.902 432.538 379.962L522.228 434.31C532.765 440.691 540.432 450.9 543.618 462.807L566.968 549.977C572.98 572.411 592.893 585.415 613.301 585.415C625.219 585.415 637.305 580.985 646.893 571.398L809.641 408.649C852.936 365.354 822.277 291.326 761.041 291.326H761.052Z" fill="white"/>
<path d="M470.749 510.521C481.549 510.521 494.691 517.314 498.023 532.238L517.409 618.88C521.395 636.704 532.617 652.387 548.195 661.922L638.603 717.24C651.807 725.319 653.579 738.64 650.827 748.417C648.074 758.194 639.615 768.635 624.132 768.635H318.948C308.475 768.635 299.067 765.745 290.978 760.05C283.479 754.766 277.594 747.341 273.966 738.577C270.338 729.812 269.251 720.404 270.812 711.366C272.5 701.62 277.109 692.93 284.523 685.515L451.354 518.685C458.093 511.945 465.623 510.521 470.749 510.521ZM470.749 490.482C458.863 490.482 446.787 494.902 437.179 504.51L270.348 671.34C227.053 714.635 257.713 788.664 318.948 788.664H624.132C672.363 788.664 690.209 725.319 649.065 700.144L558.657 644.825C547.625 638.075 539.8 627.128 536.973 614.503L517.588 527.861C512.336 504.362 491.822 490.482 470.749 490.482Z" fill="white"/>
</svg>
