<?xml version="1.0" encoding="UTF-8"?><svg id="Layer_1" xmlns="http://www.w3.org/2000/svg" viewBox="0 0 1024 1024"><path d="M0,0V1024H1024V0H0ZM591.77,747.78h-289.74c-57.91,0-86.91-70.01-45.96-110.96l158.45-158.46c25.25-25.25,68.44-12.71,76.23,22.14l18.38,82.15c2.68,11.97,10.1,22.35,20.56,28.75l85.72,52.45c39.01,23.87,22.09,83.93-23.64,83.93ZM767.94,387.19l-154.58,154.58c-24.66,24.66-66.76,13.37-75.78-20.31l-22.14-82.65c-3.02-11.28-10.29-20.97-20.28-27.02l-85.04-51.53c-39.2-23.75-22.37-84.04,23.47-84.04h288.39c57.91,0,86.91,70.01,45.96,110.96Z"/></svg>